<svg xmlns="http://www.w3.org/2000/svg" width="1600" height="480" viewBox="0 0 1600 480">
  <defs>
    <linearGradient id="bg2" x1="0" y1="0" x2="1" y2="1">
      <stop stop-color="#06101F"/>
      <stop offset=".55" stop-color="#0A192F"/>
      <stop offset="1" stop-color="#142642"/>
    </linearGradient>
    <linearGradient id="gold2" x1="0" y1="0" x2="1" y2="1">
      <stop stop-color="#E8CF9B"/>
      <stop offset=".5" stop-color="#C8A165"/>
      <stop offset="1" stop-color="#9C7A41"/>
    </linearGradient>
    <radialGradient id="sun" cx=".5" cy=".5" r=".5">
      <stop stop-color="#E8CF9B" stop-opacity=".9"/>
      <stop offset=".55" stop-color="#C8A165" stop-opacity=".55"/>
      <stop offset="1" stop-color="#C8A165" stop-opacity="0"/>
    </radialGradient>
    <radialGradient id="glow3" cx=".5" cy=".5" r=".5">
      <stop stop-color="#5B84C4" stop-opacity=".18"/>
      <stop offset="1" stop-color="#5B84C4" stop-opacity="0"/>
    </radialGradient>
  </defs>

  <rect width="1600" height="480" fill="url(#bg2)"/>

  <!-- subtle grid -->
  <g stroke="#FFFFFF" stroke-opacity=".05" stroke-width="1">
    <path d="M0 80H1600M0 160H1600M0 240H1600M0 320H1600M0 400H1600"/>
    <path d="M100 0V480M200 0V480M300 0V480M400 0V480M500 0V480M600 0V480M700 0V480M800 0V480M900 0V480M1000 0V480M1100 0V480M1200 0V480M1300 0V480M1400 0V480M1500 0V480"/>
  </g>

  <circle cx="240" cy="360" r="320" fill="url(#glow3)"/>

  <!-- sun -->
  <circle cx="1180" cy="150" r="150" fill="url(#sun)"/>
  <circle cx="1180" cy="150" r="74" fill="#C8A165" opacity=".85"/>

  <!-- horizon ground -->
  <path d="M0 420 C260 396 520 428 780 410 C1040 392 1300 424 1600 404 L1600 480 L0 480 Z" fill="#04101F"/>

  <!-- oil derrick (truss tower) -->
  <g transform="translate(180 96)" stroke="url(#gold2)" fill="none" stroke-linecap="round">
    <path d="M60 324 L120 0 L180 324" stroke-width="6"/>
    <path d="M78 250 H162 M92 176 H148 M103 110 H137 M111 52 H129" stroke-width="4"/>
    <path d="M60 324 L148 176 M180 324 L92 176 M78 250 L137 110 M162 250 L103 110 M92 176 L129 52 M148 176 L111 52" stroke-width="2.4" opacity=".75"/>
    <rect x="98" y="298" width="44" height="26" stroke-width="4"/>
    <path d="M120 0 V-22" stroke-width="4"/>
    <circle cx="120" cy="-30" r="7" stroke-width="3.4"/>
  </g>

  <!-- pumpjack -->
  <g transform="translate(430 330)" stroke="#31517D" fill="none" stroke-width="6" stroke-linecap="round">
    <path d="M20 90 V20 L110 90 Z" fill="#04101F"/>
    <path d="M65 34 V-6 H190" stroke-width="7"/>
    <path d="M186 -14 V6" stroke-width="9"/>
    <circle cx="65" cy="-6" r="8" fill="#C8A165" stroke="none"/>
    <path d="M150 -6 L172 22" stroke-width="5"/>
  </g>

  <!-- refinery tanks & columns -->
  <g transform="translate(620 240)">
    <rect x="0" y="80" width="120" height="100" rx="10" fill="#0B1D36" stroke="#1D3252" stroke-width="2"/>
    <rect x="136" y="50" width="86" height="130" rx="43" fill="#0B1D36" stroke="#1D3252" stroke-width="2"/>
    <rect x="238" y="66" width="70" height="114" rx="35" fill="#0B1D36" stroke="#1D3252" stroke-width="2"/>
    <rect x="322" y="20" width="34" height="160" fill="#0B1D36" stroke="#1D3252" stroke-width="2"/>
    <rect x="368" y="48" width="26" height="132" fill="#0B1D36" stroke="#1D3252" stroke-width="2"/>
    <path d="M339 20 V-12" stroke="#1D3252" stroke-width="4"/>
    <circle cx="339" cy="-16" r="5" fill="#C8A165" opacity=".8"/>
    <path d="M381 48 V26" stroke="#1D3252" stroke-width="4"/>
    <circle cx="381" cy="21" r="4" fill="#C8A165" opacity=".6"/>
    <path d="M16 108 H104 M16 134 H104" stroke="#1D3252" stroke-width="3" opacity=".8"/>
    <path d="M120 128 H136 M308 122 H322" stroke="#1D3252" stroke-width="5"/>
  </g>

  <!-- port crane -->
  <g transform="translate(1010 210)" stroke="#0B1D36" fill="none">
    <path d="M40 210 V40 H70 V210" stroke-width="10" fill="#0B1D36"/>
    <path d="M55 40 L230 84" stroke-width="8"/>
    <path d="M55 62 L230 106" stroke-width="5" opacity=".8"/>
    <path d="M170 88 V150" stroke-width="4" stroke="#C8A165"/>
    <rect x="156" y="150" width="28" height="22" stroke-width="4" stroke="#C8A165"/>
    <path d="M20 210 H260" stroke-width="8"/>
  </g>

  <!-- palms -->
  <g transform="translate(1420 300)" stroke="#0B1D36" fill="none" stroke-linecap="round">
    <path d="M30 120 C26 70 30 40 38 12" stroke-width="9"/>
    <g stroke-width="6">
      <path d="M38 12 C10 2 -8 8 -22 24"/>
      <path d="M38 12 C64 0 84 4 100 18"/>
      <path d="M38 12 C22 -12 6 -20 -12 -22"/>
      <path d="M38 12 C58 -10 76 -16 94 -14"/>
      <path d="M38 12 C36 -14 42 -30 54 -40"/>
    </g>
    <circle cx="46" cy="22" r="4" fill="#C8A165" stroke="none"/>
    <circle cx="32" cy="26" r="4" fill="#C8A165" stroke="none"/>
  </g>
  <g transform="translate(1520 330) scale(.72)" stroke="#0B1D36" fill="none" stroke-linecap="round">
    <path d="M30 120 C26 70 30 40 38 12" stroke-width="9"/>
    <g stroke-width="6">
      <path d="M38 12 C10 2 -8 8 -22 24"/>
      <path d="M38 12 C64 0 84 4 100 18"/>
      <path d="M38 12 C22 -12 6 -20 -12 -22"/>
      <path d="M38 12 C58 -10 76 -16 94 -14"/>
      <path d="M38 12 C36 -14 42 -30 54 -40"/>
    </g>
  </g>

  <!-- birds -->
  <g stroke="#C8A165" stroke-width="3" fill="none" stroke-linecap="round" opacity=".7">
    <path d="M880 90 q10 -12 20 0 q10 -12 20 0"/>
    <path d="M950 120 q8 -10 16 0 q8 -10 16 0"/>
  </g>

  <!-- base line -->
  <rect x="0" y="474" width="1600" height="6" fill="url(#gold2)"/>
</svg>
